<svg xmlns="http://www.w3.org/2000/svg" xmlns:xlink="http://www.w3.org/1999/xlink" width="1920" zoomAndPan="magnify" viewBox="0 0 1440 809.999993" height="1080" preserveAspectRatio="xMidYMid meet" version="1.0"><defs><g/><clipPath id="5719b1dce9"><path d="M 81 254.382812 L 446 254.382812 L 446 555.882812 L 81 555.882812 Z M 81 254.382812 " clip-rule="nonzero"/></clipPath><clipPath id="59bcd28e29"><path d="M 245 468 L 367 468 L 367 555.882812 L 245 555.882812 Z M 245 468 " clip-rule="nonzero"/></clipPath><clipPath id="92f8877707"><path d="M 711 113 L 796.960938 113 L 796.960938 226 L 711 226 Z M 711 113 " clip-rule="nonzero"/></clipPath><clipPath id="ae0f8e6015"><rect x="0" width="797" y="0" height="282"/></clipPath></defs><g clip-path="url(#5719b1dce9)"><path fill="#000000" d="M 151.320312 404.898438 L 81.152344 555.371094 L 161.554688 555.371094 L 185.335938 504.367188 L 209.121094 453.363281 L 240.8125 453.363281 C 279.84375 453.363281 287.398438 452.894531 306.746094 449.296875 C 333.363281 444.347656 361.894531 432.578125 382.992188 417.808594 C 400.828125 405.320312 415.421875 390.464844 425.828125 374.167969 C 430.296875 367.183594 440.34375 345.640625 442.386719 338.65625 C 447.324219 321.851562 446.964844 305.980469 441.433594 293.28125 C 439.441406 288.835938 434.257812 281.304688 430.734375 277.832031 C 420.03125 267.207031 404.449219 259.929688 385.660156 256.710938 C 373.230469 254.59375 377.164062 254.679688 296.824219 254.554688 L 221.503906 254.382812 Z M 335.972656 311.144531 C 345.976562 312.539062 352.734375 316.390625 356.433594 322.699219 C 361.875 332.179688 358.964844 349.449219 349.375 364.601562 C 339.65625 379.925781 326.078125 390 309.027344 394.484375 C 300.296875 396.769531 300.15625 396.769531 266.65625 396.941406 L 235.351562 397.109375 L 255.484375 353.9375 L 275.636719 310.722656 L 304.289062 310.722656 C 320.882812 310.722656 334.152344 310.933594 335.972656 311.144531 Z M 335.972656 311.144531 " fill-opacity="1" fill-rule="nonzero"/></g><path fill="#000000" d="M 227.695312 470.199219 L 232.726562 480.992188 L 245.816406 480.992188 L 244.929688 479.089844 L 244.039062 477.183594 L 237.960938 477.183594 L 234.707031 470.199219 L 231.449219 463.21875 L 335.222656 463.21875 L 338.476562 470.199219 L 341.734375 477.183594 L 335.65625 477.183594 L 336.546875 479.089844 L 337.433594 480.992188 L 350.523438 480.992188 L 345.488281 470.199219 L 340.457031 459.40625 L 222.660156 459.40625 Z M 227.695312 470.199219 " fill-opacity="1" fill-rule="nonzero"/><g clip-path="url(#59bcd28e29)"><path fill="#c90ebd" d="M 245.699219 469.015625 C 245.570312 469.140625 254.492188 488.570312 265.503906 512.1875 L 285.5 555.066406 L 292.507812 555.066406 L 291.71875 553.371094 L 290.929688 551.679688 L 296.539062 551.679688 L 297.328125 553.371094 L 298.121094 555.066406 L 305.128906 555.066406 L 304.339844 553.371094 L 303.550781 551.679688 L 308.695312 551.679688 L 309.484375 553.371094 L 310.273438 555.066406 L 317.285156 555.066406 L 316.496094 553.371094 L 315.707031 551.679688 L 320.847656 551.679688 L 321.636719 553.371094 L 322.425781 555.066406 L 329.90625 555.066406 L 329.117188 553.371094 L 328.328125 551.679688 L 333.46875 551.679688 L 334.257812 553.371094 L 335.046875 555.066406 L 342.058594 555.066406 L 341.269531 553.371094 L 340.480469 551.679688 L 345.621094 551.679688 L 346.410156 553.371094 L 347.199219 555.066406 L 354.210938 555.066406 L 353.421875 553.371094 L 352.632812 551.679688 L 357.773438 551.679688 L 358.5625 553.371094 L 359.355469 555.066406 L 366.367188 555.066406 L 346.234375 511.890625 L 326.101562 468.71875 L 285.996094 468.71875 C 263.929688 468.71875 245.761719 468.847656 245.699219 469.015625 Z M 245.699219 469.015625 " fill-opacity="1" fill-rule="nonzero"/></g><g transform="matrix(1, 0, 0, 1, 542, 264)"><g clip-path="url(#ae0f8e6015)"><g fill="#000000" fill-opacity="1"><g transform="translate(0.563924, 223.28109)"><g><path d="M 34.59375 -66.265625 L 34.59375 -87.46875 L 74.078125 -87.46875 C 81.960938 -87.46875 88.097656 -89.515625 92.484375 -93.609375 C 96.878906 -97.703125 99.078125 -103.390625 99.078125 -110.671875 C 99.078125 -117.222656 96.914062 -122.726562 92.59375 -127.1875 C 88.28125 -131.65625 82.1875 -133.890625 74.3125 -133.890625 L 34.59375 -133.890625 L 34.59375 -156.203125 L 75.421875 -156.203125 C 85.242188 -156.203125 93.875 -154.226562 101.3125 -150.28125 C 108.75 -146.34375 114.507812 -140.988281 118.59375 -134.21875 C 122.6875 -127.445312 124.734375 -119.75 124.734375 -111.125 C 124.734375 -102.050781 122.6875 -94.164062 118.59375 -87.46875 C 114.507812 -80.78125 108.75 -75.570312 101.3125 -71.84375 C 93.875 -68.125 85.242188 -66.265625 75.421875 -66.265625 Z M 16.953125 0 L 16.953125 -156.203125 L 42.625 -156.203125 L 42.625 0 Z M 102.640625 0 L 47.96875 -67.828125 L 71.84375 -76.53125 L 135 0 Z M 102.640625 0 "/></g></g></g><g fill="#000000" fill-opacity="1"><g transform="translate(114.362907, 223.28109)"><g><path d="M 58.46875 2.234375 C 48.789062 2.234375 40.046875 -0.21875 32.234375 -5.125 C 24.429688 -10.039062 18.257812 -16.695312 13.71875 -25.09375 C 9.1875 -33.5 6.921875 -42.910156 6.921875 -53.328125 C 6.921875 -63.890625 9.1875 -73.375 13.71875 -81.78125 C 18.257812 -90.1875 24.429688 -96.878906 32.234375 -101.859375 C 40.046875 -106.847656 48.789062 -109.34375 58.46875 -109.34375 C 66.644531 -109.34375 73.894531 -107.59375 80.21875 -104.09375 C 86.539062 -100.59375 91.5625 -95.789062 95.28125 -89.6875 C 99 -83.59375 100.859375 -76.679688 100.859375 -68.953125 L 100.859375 -38.15625 C 100.859375 -30.414062 99.035156 -23.492188 95.390625 -17.390625 C 91.742188 -11.296875 86.722656 -6.5 80.328125 -3 C 73.929688 0.488281 66.644531 2.234375 58.46875 2.234375 Z M 62.484375 -20.96875 C 71.554688 -20.96875 78.878906 -24.015625 84.453125 -30.109375 C 90.035156 -36.210938 92.828125 -44.023438 92.828125 -53.546875 C 92.828125 -59.953125 91.5625 -65.609375 89.03125 -70.515625 C 86.5 -75.421875 82.960938 -79.25 78.421875 -82 C 73.890625 -84.75 68.578125 -86.125 62.484375 -86.125 C 56.523438 -86.125 51.273438 -84.75 46.734375 -82 C 42.203125 -79.25 38.632812 -75.421875 36.03125 -70.515625 C 33.425781 -65.609375 32.125 -59.953125 32.125 -53.546875 C 32.125 -47.148438 33.425781 -41.5 36.03125 -36.59375 C 38.632812 -31.6875 42.203125 -27.851562 46.734375 -25.09375 C 51.273438 -22.34375 56.523438 -20.96875 62.484375 -20.96875 Z M 91.265625 0 L 91.265625 -28.78125 L 95.5 -54.890625 L 91.265625 -80.78125 L 91.265625 -107.109375 L 115.8125 -107.109375 L 115.8125 0 Z M 91.265625 0 "/></g></g></g><g fill="#000000" fill-opacity="1"><g transform="translate(223.699172, 223.28109)"><g><path d="M 49.765625 0 L 0.890625 -107.109375 L 28.109375 -107.109375 L 65.375 -19.859375 L 49.3125 -19.859375 L 86.796875 -107.109375 L 112.90625 -107.109375 L 64.046875 0 Z M 49.765625 0 "/></g></g></g><g fill="#000000" fill-opacity="1"><g transform="translate(313.845806, 223.28109)"><g><path d="M 63.375 2.234375 C 52.664062 2.234375 43.03125 -0.179688 34.46875 -5.015625 C 25.914062 -9.847656 19.144531 -16.503906 14.15625 -24.984375 C 9.175781 -33.460938 6.6875 -42.984375 6.6875 -53.546875 C 6.6875 -64.109375 9.140625 -73.59375 14.046875 -82 C 18.960938 -90.40625 25.625 -97.0625 34.03125 -101.96875 C 42.4375 -106.882812 51.769531 -109.34375 62.03125 -109.34375 C 72 -109.34375 80.8125 -107.035156 88.46875 -102.421875 C 96.132812 -97.804688 102.160156 -91.484375 106.546875 -83.453125 C 110.929688 -75.421875 113.125 -66.273438 113.125 -56.015625 C 113.125 -54.222656 113.015625 -52.394531 112.796875 -50.53125 C 112.578125 -48.675781 112.242188 -46.632812 111.796875 -44.40625 L 23.875 -44.40625 L 23.875 -64.484375 L 99.078125 -64.484375 L 89.921875 -56.453125 C 89.628906 -62.992188 88.363281 -68.492188 86.125 -72.953125 C 83.894531 -77.421875 80.734375 -80.84375 76.640625 -83.21875 C 72.554688 -85.601562 67.539062 -86.796875 61.59375 -86.796875 C 55.34375 -86.796875 49.910156 -85.457031 45.296875 -82.78125 C 40.679688 -80.101562 37.109375 -76.347656 34.578125 -71.515625 C 32.054688 -66.679688 30.796875 -60.914062 30.796875 -54.21875 C 30.796875 -47.53125 32.132812 -41.65625 34.8125 -36.59375 C 37.488281 -31.539062 41.28125 -27.632812 46.1875 -24.875 C 51.09375 -22.125 56.75 -20.75 63.15625 -20.75 C 68.65625 -20.75 73.75 -21.710938 78.4375 -23.640625 C 83.125 -25.578125 87.101562 -28.40625 90.375 -32.125 L 105.984375 -16.296875 C 100.785156 -10.191406 94.46875 -5.578125 87.03125 -2.453125 C 79.59375 0.671875 71.707031 2.234375 63.375 2.234375 Z M 63.375 2.234375 "/></g></g></g><g fill="#000000" fill-opacity="1"><g transform="translate(412.917878, 223.28109)"><g><path d="M 34.59375 -58.90625 L 34.59375 -81.21875 L 73.640625 -81.21875 C 78.992188 -81.21875 83.710938 -82.296875 87.796875 -84.453125 C 91.890625 -86.609375 95.125 -89.65625 97.5 -93.59375 C 99.882812 -97.539062 101.078125 -102.191406 101.078125 -107.546875 C 101.078125 -112.910156 99.882812 -117.5625 97.5 -121.5 C 95.125 -125.4375 91.890625 -128.484375 87.796875 -130.640625 C 83.710938 -132.804688 78.992188 -133.890625 73.640625 -133.890625 L 34.59375 -133.890625 L 34.59375 -156.203125 L 74.96875 -156.203125 C 84.789062 -156.203125 93.601562 -154.191406 101.40625 -150.171875 C 109.21875 -146.160156 115.394531 -140.507812 119.9375 -133.21875 C 124.476562 -125.925781 126.75 -117.367188 126.75 -107.546875 C 126.75 -97.734375 124.476562 -89.179688 119.9375 -81.890625 C 115.394531 -74.597656 109.21875 -68.941406 101.40625 -64.921875 C 93.601562 -60.910156 84.789062 -58.90625 74.96875 -58.90625 Z M 16.953125 0 L 16.953125 -156.203125 L 42.625 -156.203125 L 42.625 0 Z M 16.953125 0 "/></g></g></g><g fill="#000000" fill-opacity="1"><g transform="translate(522.254099, 223.28109)"><g><path d="M 58.46875 2.234375 C 48.789062 2.234375 40.046875 -0.21875 32.234375 -5.125 C 24.429688 -10.039062 18.257812 -16.695312 13.71875 -25.09375 C 9.1875 -33.5 6.921875 -42.910156 6.921875 -53.328125 C 6.921875 -63.890625 9.1875 -73.375 13.71875 -81.78125 C 18.257812 -90.1875 24.429688 -96.878906 32.234375 -101.859375 C 40.046875 -106.847656 48.789062 -109.34375 58.46875 -109.34375 C 66.644531 -109.34375 73.894531 -107.59375 80.21875 -104.09375 C 86.539062 -100.59375 91.5625 -95.789062 95.28125 -89.6875 C 99 -83.59375 100.859375 -76.679688 100.859375 -68.953125 L 100.859375 -38.15625 C 100.859375 -30.414062 99.035156 -23.492188 95.390625 -17.390625 C 91.742188 -11.296875 86.722656 -6.5 80.328125 -3 C 73.929688 0.488281 66.644531 2.234375 58.46875 2.234375 Z M 62.484375 -20.96875 C 71.554688 -20.96875 78.878906 -24.015625 84.453125 -30.109375 C 90.035156 -36.210938 92.828125 -44.023438 92.828125 -53.546875 C 92.828125 -59.953125 91.5625 -65.609375 89.03125 -70.515625 C 86.5 -75.421875 82.960938 -79.25 78.421875 -82 C 73.890625 -84.75 68.578125 -86.125 62.484375 -86.125 C 56.523438 -86.125 51.273438 -84.75 46.734375 -82 C 42.203125 -79.25 38.632812 -75.421875 36.03125 -70.515625 C 33.425781 -65.609375 32.125 -59.953125 32.125 -53.546875 C 32.125 -47.148438 33.425781 -41.5 36.03125 -36.59375 C 38.632812 -31.6875 42.203125 -27.851562 46.734375 -25.09375 C 51.273438 -22.34375 56.523438 -20.96875 62.484375 -20.96875 Z M 91.265625 0 L 91.265625 -28.78125 L 95.5 -54.890625 L 91.265625 -80.78125 L 91.265625 -107.109375 L 115.8125 -107.109375 L 115.8125 0 Z M 91.265625 0 "/></g></g></g><g fill="#000000" fill-opacity="1"><g transform="translate(631.590406, 223.28109)"><g><path d="M 48.640625 2.234375 C 42.691406 2.234375 36.960938 1.453125 31.453125 -0.109375 C 25.953125 -1.671875 20.894531 -3.898438 16.28125 -6.796875 C 11.675781 -9.703125 7.660156 -13.238281 4.234375 -17.40625 L 19.859375 -33.03125 C 23.578125 -28.707031 27.851562 -25.46875 32.6875 -23.3125 C 37.519531 -21.15625 42.988281 -20.078125 49.09375 -20.078125 C 54.59375 -20.078125 58.753906 -20.894531 61.578125 -22.53125 C 64.410156 -24.164062 65.828125 -26.546875 65.828125 -29.671875 C 65.828125 -32.953125 64.488281 -35.484375 61.8125 -37.265625 C 59.132812 -39.046875 55.675781 -40.566406 51.4375 -41.828125 C 47.195312 -43.097656 42.734375 -44.398438 38.046875 -45.734375 C 33.359375 -47.078125 28.894531 -48.898438 24.65625 -51.203125 C 20.414062 -53.515625 16.957031 -56.675781 14.28125 -60.6875 C 11.601562 -64.707031 10.265625 -69.914062 10.265625 -76.3125 C 10.265625 -83.15625 11.863281 -89.03125 15.0625 -93.9375 C 18.257812 -98.851562 22.796875 -102.648438 28.671875 -105.328125 C 34.546875 -108.003906 41.578125 -109.34375 49.765625 -109.34375 C 58.390625 -109.34375 66.007812 -107.816406 72.625 -104.765625 C 79.25 -101.710938 84.789062 -97.140625 89.25 -91.046875 L 73.640625 -75.421875 C 70.515625 -79.285156 66.941406 -82.1875 62.921875 -84.125 C 58.910156 -86.0625 54.300781 -87.03125 49.09375 -87.03125 C 44.1875 -87.03125 40.390625 -86.285156 37.703125 -84.796875 C 35.023438 -83.304688 33.6875 -81.148438 33.6875 -78.328125 C 33.6875 -75.347656 35.023438 -73.039062 37.703125 -71.40625 C 40.390625 -69.769531 43.851562 -68.351562 48.09375 -67.15625 C 52.332031 -65.96875 56.789062 -64.664062 61.46875 -63.25 C 66.15625 -61.84375 70.617188 -59.910156 74.859375 -57.453125 C 79.097656 -55.003906 82.554688 -51.734375 85.234375 -47.640625 C 87.910156 -43.546875 89.25 -38.226562 89.25 -31.6875 C 89.25 -21.269531 85.601562 -13.007812 78.3125 -6.90625 C 71.03125 -0.8125 61.140625 2.234375 48.640625 2.234375 Z M 48.640625 2.234375 "/></g></g></g><g clip-path="url(#92f8877707)"><g fill="#000000" fill-opacity="1"><g transform="translate(707.456365, 223.28109)"><g><path d="M 48.640625 2.234375 C 42.691406 2.234375 36.960938 1.453125 31.453125 -0.109375 C 25.953125 -1.671875 20.894531 -3.898438 16.28125 -6.796875 C 11.675781 -9.703125 7.660156 -13.238281 4.234375 -17.40625 L 19.859375 -33.03125 C 23.578125 -28.707031 27.851562 -25.46875 32.6875 -23.3125 C 37.519531 -21.15625 42.988281 -20.078125 49.09375 -20.078125 C 54.59375 -20.078125 58.753906 -20.894531 61.578125 -22.53125 C 64.410156 -24.164062 65.828125 -26.546875 65.828125 -29.671875 C 65.828125 -32.953125 64.488281 -35.484375 61.8125 -37.265625 C 59.132812 -39.046875 55.675781 -40.566406 51.4375 -41.828125 C 47.195312 -43.097656 42.734375 -44.398438 38.046875 -45.734375 C 33.359375 -47.078125 28.894531 -48.898438 24.65625 -51.203125 C 20.414062 -53.515625 16.957031 -56.675781 14.28125 -60.6875 C 11.601562 -64.707031 10.265625 -69.914062 10.265625 -76.3125 C 10.265625 -83.15625 11.863281 -89.03125 15.0625 -93.9375 C 18.257812 -98.851562 22.796875 -102.648438 28.671875 -105.328125 C 34.546875 -108.003906 41.578125 -109.34375 49.765625 -109.34375 C 58.390625 -109.34375 66.007812 -107.816406 72.625 -104.765625 C 79.25 -101.710938 84.789062 -97.140625 89.25 -91.046875 L 73.640625 -75.421875 C 70.515625 -79.285156 66.941406 -82.1875 62.921875 -84.125 C 58.910156 -86.0625 54.300781 -87.03125 49.09375 -87.03125 C 44.1875 -87.03125 40.390625 -86.285156 37.703125 -84.796875 C 35.023438 -83.304688 33.6875 -81.148438 33.6875 -78.328125 C 33.6875 -75.347656 35.023438 -73.039062 37.703125 -71.40625 C 40.390625 -69.769531 43.851562 -68.351562 48.09375 -67.15625 C 52.332031 -65.96875 56.789062 -64.664062 61.46875 -63.25 C 66.15625 -61.84375 70.617188 -59.910156 74.859375 -57.453125 C 79.097656 -55.003906 82.554688 -51.734375 85.234375 -47.640625 C 87.910156 -43.546875 89.25 -38.226562 89.25 -31.6875 C 89.25 -21.269531 85.601562 -13.007812 78.3125 -6.90625 C 71.03125 -0.8125 61.140625 2.234375 48.640625 2.234375 Z M 48.640625 2.234375 "/></g></g></g></g></g></g></svg>